HIERARCHY
ROOT Hips
{
  OFFSET 0.142454 103.394 1.42217
  CHANNELS 6 Xposition Yposition Zposition Zrotation Xrotation Yrotation
  JOINT Spine
  {
    OFFSET 0 10.1816 0.1315
    CHANNELS 3 Zrotation Xrotation Yrotation
    JOINT Spine1
    {
      OFFSET 0 10.0835 -1.0008
      CHANNELS 3 Zrotation Xrotation Yrotation
      JOINT Spine2
      {
        OFFSET 0 9.1 -1.3734
        CHANNELS 3 Zrotation Xrotation Yrotation
        JOINT Neck
        {
          OFFSET 0 16.6717 -2.5162
          CHANNELS 3 Zrotation Xrotation Yrotation
          JOINT Head
          {
            OFFSET 0 9.6179 1.685
            CHANNELS 3 Zrotation Xrotation Yrotation
            End Site
            {
              OFFSET 0 0 0
            }
          }
        }
        JOINT LeftShoulder
        {
          OFFSET 4.5704 10.946 -2.628
          CHANNELS 3 Zrotation Xrotation Yrotation
          JOINT LeftArm
          {
            OFFSET 10.5924 -0.5246 -2.2321
            CHANNELS 3 Zrotation Xrotation Yrotation
            JOINT LeftForeArm
            {
              OFFSET 27.8415 -0.0001 0
              CHANNELS 3 Zrotation Xrotation Yrotation
              JOINT LeftHand
              {
                OFFSET 28.3288 0 0
                CHANNELS 3 Zrotation Xrotation Yrotation
                End Site
                {
                  OFFSET 0 0 0
                }
              }
            }
          }
        }
        JOINT RightShoulder
        {
          OFFSET -4.57 10.9462 -2.628
          CHANNELS 3 Zrotation Xrotation Yrotation
          JOINT RightArm
          {
            OFFSET -10.5928 -0.5248 -2.2321
            CHANNELS 3 Zrotation Xrotation Yrotation
            JOINT RightForeArm
            {
              OFFSET -27.8415 0 0
              CHANNELS 3 Zrotation Xrotation Yrotation
              JOINT RightHand
              {
                OFFSET -28.3288 0 0.0001
                CHANNELS 3 Zrotation Xrotation Yrotation
                End Site
                {
                  OFFSET 0 0 0
                }
              }
            }
          }
        }
      }
    }
  }
  JOINT LeftUpLeg
  {
    OFFSET 8.2078 -6.7517 -1.5996
    CHANNELS 3 Zrotation Xrotation Yrotation
    JOINT LeftLeg
    {
      OFFSET 0 -44.3705 0.2846
      CHANNELS 3 Zrotation Xrotation Yrotation
      JOINT LeftFoot
      {
        OFFSET 0 -44.4279 -2.9822
        CHANNELS 3 Zrotation Xrotation Yrotation
        JOINT LeftToeBase
        {
          OFFSET 0 -8.7287 10.7106
          CHANNELS 3 Zrotation Xrotation Yrotation
          End Site
          {
            OFFSET 0 0 0
          }
        }
      }
    }
  }
  JOINT RightUpLeg
  {
    OFFSET -8.2078 -6.7517 -1.5996
    CHANNELS 3 Zrotation Xrotation Yrotation
    JOINT RightLeg
    {
      OFFSET 0 -44.3705 0.2862
      CHANNELS 3 Zrotation Xrotation Yrotation
      JOINT RightFoot
      {
        OFFSET 0 -44.4277 -2.9838
        CHANNELS 3 Zrotation Xrotation Yrotation
        JOINT RightToeBase
        {
          OFFSET 0 -8.7287 10.7106
          CHANNELS 3 Zrotation Xrotation Yrotation
          End Site
          {
            OFFSET 0 0 0
          }
        }
      }
    }
  }
}
MOTION
Frames:	14
Frame Time:	0.0333333
0.142454 103.394 1.42217 -3.74506 -3.40385 -5.45257 2.72602 3.36323 1.37959 1.55326 1.15453 0.297972 1.55121 1.13294 0.325645 0.466139 5.62184 -0.122839 -0.0850661 -7.55315 1.36355 -11.7821 4.69091 -16.854 -69.8749 20.0977 -3.28805 -0.000204039 3.34339e-06 -1.45391 -7.37151 -32.8378 -5.38307 14.227 5.00513 14.571 61.3286 30.2115 2.56649 -1.00501e-05 -2.96524e-06 6.68958 7.23399 -20.0623 1.96934 10.0902 -8.01908 16.3901 4.26395 12.3056 1.12738 -7.11186 1.18747 0.669396 -1.2525e-06 -4.93314 8.29934e-06 3.44206 -0.0238981 -10.4019 -3.26116 7.94477 -9.31698 3.20686 -3.77364 -1.43855 1.36578e-06 -7.27348 1.54386e-05 
0.382929 101.717 0.910356 -3.07564 -3.28886 -5.47892 2.41129 5.63366 1.22906 1.32933 0.294022 0.284195 1.32469 0.274397 0.308286 0.340299 5.89033 0.12072 -0.138982 -6.75846 2.00294 -12.144 3.78382 -12.9243 -68.3955 19.3707 -4.45476 -0.000194414 -4.71653e-06 -4.60627 -4.68482 -24.7542 -6.7061 14.1532 4.02799 11.1824 60.6735 29.5338 4.53433 -7.3969e-06 -9.90049e-07 7.85638 5.87536 -15.1434 6.60313 10.8579 -13.6418 16.3985 4.41324 22.7571 0.68031 -7.11756 -3.5953 0.39506 -1.58885e-06 -4.9781 -2.48818e-06 1.51126 -7.48314 -10.766 -3.87984 21.9341 -6.29004 4.21073 -10.2599 -2.80737 1.07916e-06 -7.50543 7.68101e-06 
0.664412 99.9607 -0.0820731 -2.19983 -2.86594 -5.7467 1.84649 8.69902 0.998406 1.06129 -0.553999 0.260385 1.05446 -0.57154 0.278194 0.249275 6.13226 0.394242 -0.299329 -6.1457 2.82583 -12.2977 2.75343 -8.62201 -66.566 17.6127 -6.4699 -0.000194346 -3.9613e-06 -6.64294 -1.17769 -11.9943 -9.22256 13.8371 2.94388 7.57925 60.0142 27.7939 9.71222 5.65667e-07 -8.55352e-06 4.3342 2.97332 -7.4957 12.6779 10.8812 -18.5524 15.7512 4.70737 30.3482 1.60208 -7.89638 -6.48434 -0.0319448 7.30909e-07 -4.85803 3.28288e-06 -0.0304547 -13.3052 -10.5866 -4.73702 31.142 -3.46174 4.4744 -14.1143 -4.39356 -3.43664e-06 -7.63488 -1.0716e-05 
0.982301 97.9245 -1.64986 -0.925842 -1.56331 -6.17631 0.855706 12.0642 0.774982 0.805144 -1.14554 0.232388 0.797175 -1.16099 0.241852 0.142465 6.27547 0.691624 -0.592365 -5.9981 3.73171 -11.9898 1.78232 -4.68808 -64.1509 15.1659 -7.09657 -0.000198391 -6.62365e-06 -12.7098 3.02284 4.55781 -11.6125 13.1708 1.93076 4.33579 58.8315 25.2805 10.1142 -1.49234e-05 -2.72544e-06 12.7821 -2.03692 2.5597 12.8783 10.2513 -24.5243 14.415 5.03597 37.1484 3.2615 -8.91961 -8.49994 -0.158303 -9.10018e-07 -5.15752 -1.55229e-08 -1.47583 -20.1465 -9.83332 -5.96422 39.4054 -0.710343 4.37637 -17.0545 -6.21986 3.17405e-07 -8.00671 -6.09857e-06 
1.29629 95.4629 -3.71081 0.546926 0.965295 -6.52391 -0.458708 15.0817 0.726306 0.666481 -1.26184 0.221462 0.658312 -1.27561 0.22488 -0.0503895 6.29516 0.986139 -1.00308 -6.61412 4.47707 -10.9888 1.10038 -2.0995 -61.6704 12.5605 -5.9751 -0.000221915 3.53899e-06 -24.1551 5.52783 21.4058 -13.5522 12.1955 1.20375 2.10657 57.1409 22.3705 6.8166 6.27793e-06 -4.81128e-06 31.0034 -5.31191 14.9093 9.8262 9.47143 -32.4072 13.0132 5.57283 43.9629 4.05663 -9.76981 -9.72538 0.656813 7.97987e-07 -5.51574 3.3457e-06 -2.68017 -28.6419 -9.01099 -7.68419 47.357 2.29321 3.85152 -19.3405 -8.31459 7.37392e-07 -7.80923 3.0407e-06 
1.54975 92.406 -5.9774 1.69267 4.53279 -6.62179 -1.77632 17.5962 0.962814 0.739985 -0.944982 0.246865 0.731374 -0.957817 0.252505 -0.359372 6.25092 1.23801 -1.48078 -8.16143 4.82297 -9.21968 0.79878 -1.31282 -60.1433 10.5699 -3.05457 -0.000212448 -2.32339e-06 -40.5165 3.55154 32.6505 -13.3511 11.0358 0.853283 1.13787 55.7334 19.4714 1.87308 8.82117e-06 2.00134e-06 52.0517 -5.205 26.2758 8.04069 9.69133 -41.9303 12.7971 6.50327 51.1356 2.88756 -10.1105 -10.6997 2.06596 1.72025e-06 -5.47077 6.91545e-08 -3.48161 -38.2819 -8.73296 -10.046 55.006 6.13965 3.22735 -21.5927 -10.6204 -3.59987e-06 -8.11451 -1.64936e-06 
1.72515 88.7071 -8.14519 2.18291 8.3984 -6.59007 -2.77892 20.2682 1.37324 0.999562 -0.518752 0.292999 0.989513 -0.530918 0.310746 -0.713084 6.19496 1.42975 -1.93615 -10.6348 4.80243 -6.84725 0.743104 -1.71107 -59.8285 9.67368 1.17919 -0.000216047 5.57293e-06 -58.2634 -1.80727 33.8438 -11.3672 9.64133 0.758723 0.995849 55.2822 16.855 -4.55709 -3.90128e-06 3.28247e-06 70.2215 -5.48498 32.4067 12.2769 12.3748 -51.9239 15.2984 7.98421 58.7419 0.264683 -10.1842 -12.1121 2.74046 2.01888e-06 -5.4385 1.35055e-07 -4.11091 -48.3139 -9.40126 -13.5604 62.7061 11.7589 2.87373 -23.6117 -13.0711 -3.66293e-07 -9.00897 -1.5274e-05 
1.87024 84.4656 -10.114 2.07253 11.7439 -6.63557 -3.18636 23.8306 1.60214 1.26289 -0.267177 0.309716 1.25162 -0.277728 0.343648 -0.939125 6.07881 1.58471 -2.1881 -13.8622 4.76729 -4.26781 0.723798 -2.17018 -59.7286 9.07279 7.20792 -0.000221922 1.54182e-06 -73.1738 -5.34445 26.6406 -11.2874 7.86075 0.72227 0.994265 55.204 13.8443 -12.6281 -2.47749e-05 -6.37243e-06 80.7666 -9.09593 31.259 24.9317 19.0947 -61.0667 21.9991 10.3748 66.5474 -3.05385 -10.0272 -14.0507 1.99224 -2.34415e-06 -5.47853 -2.56114e-06 -4.92292 -57.9186 -11.2745 -19.6753 70.432 20.368 1.19471 -25.4839 -15.9981 3.83606e-06 -10.0222 1.24503e-05 
2.048 79.693 -11.8454 1.35253 14.3973 -6.66898 -2.74815 28.1231 1.27158 1.32773 -0.187551 0.255416 1.31761 -0.195275 0.300596 -0.859268 5.85682 1.73948 -2.00788 -17.4242 5.09182 -1.93509 0.632612 -2.05447 -58.2638 7.16157 16.8491 -0.000229355 2.16903e-06 -82.973 -5.60565 17.4543 -14.3442 5.78161 0.652516 0.789245 53.6312 9.50709 -21.5899 -2.49514e-05 2.06095e-06 82.5725 -10.7396 24.6432 39.764 32.5797 -68.8069 35.1954 15.3309 74.5732 -8.44885 -9.57202 -16.1921 0.415596 5.65621e-07 -5.68073 4.81809e-06 -6.56034 -66.836 -14.7393 -33.4121 77.7794 36.7986 -1.01873 -27.23 -19.2307 4.95551e-06 -10.626 4.68641e-06 
2.25339 75.1353 -13.2644 0.0140029 16.951 -6.35174 -1.56229 32.1612 0.38757 1.17852 -0.166136 0.147325 1.17226 -0.170575 0.195068 -0.440069 5.65836 1.90149 -1.33043 -20.6308 5.79919 -0.157409 0.470883 -1.47769 -54.9139 4.091 28.6499 -0.000164686 7.28422e-06 -85.4899 -3.52238 11.4818 -18.7511 3.75524 0.576926 0.439097 50.4637 4.78772 -29.5952 2.01065e-06 -1.6776e-05 78.2808 -8.44971 18.8842 48.2887 56.7275 -74.2015 58.6064 27.6705 81.4116 -21.2146 -8.63397 -17.0992 -0.800754 -1.2679e-08 -5.89359 -1.76862e-06 -9.96325 -74.7985 -20.4773 -65.3952 82.434 71.2639 -3.27686 -28.3694 -22.4868 -7.7392e-07 -11.0109 -4.60932e-06 
2.44889 71.1199 -14.1824 -1.43975 19.9245 -5.58254 -0.348766 35.1538 -0.425905 1.01018 -0.239744 0.0580535 1.00825 -0.241443 0.105169 0.145168 5.69183 2.03765 -0.385014 -22.8687 6.51979 0.396355 0.212816 -0.865526 -50.8483 1.76785 39.8722 -0.00021056 1.26301e-06 -83.7488 -0.727036 9.41854 -19.4636 2.16649 0.543164 0.106989 47.9019 0.525081 -38.6148 2.66839e-06 -1.37967e-05 76.113 -5.32995 16.726 44.4623 90.3137 -75.8502 91.4226 66.18 85.656 -60.4262 -7.47798 -17.5293 -1.21156 6.8852e-07 -5.90804 -1.81922e-06 -21.373 -81.8913 -34.0658 -110.32 82.4872 118.112 -5.03977 -29.206 -25.2164 4.80329e-06 -11.1623 4.6368e-06 
2.59176 67.6953 -14.5442 -2.21815 22.9854 -4.67999 0.0115832 37.16 -0.474524 1.01875 -0.508081 0.0454936 1.01828 -0.50819 0.0974002 0.636766 5.92724 2.11565 0.472597 -24.1081 6.87806 1.60312 0.195833 -0.535864 -50.815 0.0451965 48.3384 -0.00022567 -9.09681e-07 -82.2635 -0.117396 10.2261 -14.7638 1.47585 0.5665 -0.152097 47.1262 -4.0353 -49.7679 -1.583e-05 5.0859e-06 80.4044 -1.611 16.6551 29.8188 118.573 -73.8949 119.453 125.916 85.0624 -120.843 -6.42603 -17.7823 -1.07703 -2.50341e-06 -6.09536 2.49619e-06 -77.9401 -86.0184 -91.9872 -136.199 79.5886 145.186 -6.23109 -29.9055 -26.9345 1.66358e-06 -11.3148 4.66606e-06 
2.66195 64.8457 -14.4477 -2.14547 25.4758 -3.97821 -0.585865 38.5966 0.256372 1.21906 -0.873407 0.102631 1.21441 -0.872894 0.167092 0.867491 6.02411 2.14683 0.984215 -24.8865 6.83518 1.86195 0.299737 -0.462641 -53.1215 -2.0428 52.2051 -0.000190941 -5.3675e-06 -81.7198 -2.64699 11.6028 -7.91353 2.3341 0.646029 -0.3778 47.3929 -9.49704 -57.3964 -1.56376e-05 1.2633e-05 84.7766 2.65275 16.2205 13.2269 134.594 -70.6884 135.874 149.014 82.1849 -144.304 -5.64754 -18.0814 -0.846567 -7.79832e-07 -6.54819 1.66967e-06 -131.394 -83.0788 -145.918 -148.009 76.1372 157.605 -7.13981 -30.9465 -27.7419 2.15126e-06 -11.6989 -9.27629e-06 
2.70467 62.638 -13.9067 -1.8119 27.1886 -3.48539 -1.3799 39.537 1.16474 1.48117 -1.08311 0.176194 1.46786 -1.08232 0.255803 0.818819 5.68917 2.15346 0.988018 -25.6649 6.53146 0.762499 0.529632 -0.462616 -55.7592 -4.60823 48.0082 -0.000191137 1.02124e-07 -76.2245 -5.00179 11.7319 -3.8435 4.94329 0.778598 -0.560604 47.1742 -17.879 -54.334 -1.98306e-05 1.4862e-05 80.0836 6.49647 15.0702 2.73343 142.545 -67.8353 144.426 157.803 79.3141 -153.279 -4.89588 -18.5964 -0.675822 1.13318e-06 -6.95158 2.48306e-06 -142.891 -79.5931 -157.401 -154.017 72.9941 164.093 -7.84118 -32.2001 -28.3143 -2.1924e-06 -12.0277 -6.24212e-06 
